<?xml version="1.0" encoding="UTF-8" standalone="no"?><svg xmlns="http://www.w3.org/2000/svg" xmlns:xlink="http://www.w3.org/1999/xlink" contentScriptType="text/ecmascript" fill="#000000" width="250" zoomAndPan="magnify" contentStyleType="text/css" viewBox="0.0 0.0 250.0 265.0" height="265" preserveAspectRatio="xMidYMid meet" version="1"><g><g fill="#2e1b5b" id="change1_2"><path d="M170 145H175V150H170z"/><path d="M175 150H180V155H175z"/><path d="M180 155H200V160H180z"/><path d="M45 135H50V140H45z"/><path d="M50 130H55V135H50z"/><path d="M245,130v-10h-5v-5h-5v-5h-5v-5h-5v5h-10v5h-15v5h-5h-10v-5h15v-5h5v-5h5h5v-5h5v-5h5V85h-5v-5h5h5v-5v-5 h5V60V50h-5v-5h-5v-5h-5h-5v-5h-5v-5h-5v-5h-5V15h-5V5h-10V0h-10v5h-5h-10V0h-15v5h-10V0h-5h-10h-15v5h-5H90v5H80v5v5h-5v15h5v5v5 h-5v-5H65v5h-5h-5v-5v-5h-5v-5h-5v-5H35v-5h-5h-5h-5v5h-5v5h-5v5H5v5v5v5h5v10h5v5h5h10v5H15v5h-5v5v5h5h5v5H5v5H0v15h5v5h5v5h5v5 h5v5h5v5h15h5v-5h5v-5h5v-5h15v5H60h-5v5h5h5v5h5v5h10v5h5v5h5v5h5v5h5h5v5h5v5h5v5h5v5h5v5v5v5h5v5v5v5h-5v5v5h-5v5h-5v5h-10v5 h-5v5h5v5h-5v5H85v5h10v5h5v5h55v-5h10v5h30h5h15v-5h10h5v-5h5v-5h-5v-5h-5v-5v-5h-5v-5h-5v-5h-10v-5h-20v5h-10v-5h-5v-5v-5v-5h-5 v-5v-5v-5v-5h-5v-5h-5v-5h-10v-5h-5v-5h-5v-5h5v-5h5v-5h5v-5h5h15v-5h10v5h10h10v5v5h5v-5h10v5h10h5v-5h5h5v-5h5v-5h5v-10H245z M100,145H90v-5h-5v-5h-5v-5v-5h5v5h5v5h5v5h5V145z M125,145v5h-5v-5h-5v-5h-5v-5h10v5h5V145z"/></g><g fill="#007d2a" id="change2_1"><path d="M50 130H55V135H50z"/><path d="M45 135H50V140H45z"/><path d="M170 145H175V150H170z"/><path d="M175 150H180V155H175z"/><path d="M180 155H200V160H180z"/><path d="M245,130v-10h-5v-5h-5v-5h-5v-5h-5v5h-10v5h-15v5h-15v-5h15v-5h5v-5h5h5v-5h5v-5h5V85h-5v-5h5h5V70h5V50 h-5v-5h-5v-5h-5h-5v-5h-5v-5h-5v-5h-5V15h-5V5h-10V0h-10v5h-15V0h-15v5h-10V0h-30v5H90v5H80v10h-5v15h5v10h-5v-5H65v5H55v-5v-5h-5 v-5h-5v-5H35v-5H20v5h-5v5h-5v5H5v5v5v5h5v10h5v5h15v5H15v5h-5v5v5h5h5v5H5v5H0v15h5v5h5v5h5v5h5v5h5v5h15h5v-5h5v-5h5v-5h15v5H60 h-5v5h5h5v5h5v5h10v5h5v5h5v5h5v5h10v5h5v5h5v5h5v5h5v5v5v5h5v5v5v5h-5v5v5h-5v5h-5v5h-10v5h-5v5h5v5h-5v5H85v5h10v5h5v5h55v-5h10 v5h50v-5h15v-5h5v-5h-5v-5h-5v-5v-5h-5v-5h-5v-5h-10v-5h-20v5h-10v-5h-5v-5v-5v-5h-5v-5v-5v-5v-5h-5v-5h-5v-5h-10v-5h-5v-5h-5v-5 h5v-5h5v-5h5v-5h5h15v-5h10v5h20v5v5h5v-5h10v5h10h5v-5h5h5v-5h5v-5h5v-10H245z M100,145H90v-5h-5v-5h-5v-5v-5h5v5h5v5h5v5h5V145z M125,150h-5v-5h-5v-5h-5v-5h10v5h5v5V150z"/></g><g fill="#00c49c" id="change3_1"><path d="M25 110H35V115H25z"/><path d="M35 115H40V120H35z"/><path d="M40 105H45V110H40z"/><path d="M45 110H50V115H45z"/><path d="M40 95L35 95 35 90 30 90 30 95 30 100 40 100z"/><path d="M50 70H55V75H50z"/><path d="M65 75L70 75 70 70 75 70 75 60 60 60 60 70 65 70z"/><path d="M75 75H80V80H75z"/><path d="M80 65H90V70H80z"/><path d="M70 85H85V90H70z"/><path d="M65 90H70V95H65z"/><path d="M110 5L120 5 120 0 105 0 105 5 100 5 100 15 110 15z"/><path d="M90 15H95V20H90z"/><path d="M95 20H105V25H95z"/><path d="M115 15H120V25H115z"/><path d="M145 5H150V15H145z"/><path d="M140 15H145V20H140z"/><path d="M160 25L160 20 165 20 165 15 170 15 170 10 160 10 160 15 150 15 150 25z"/><path d="M140 25H145V30H140z"/><path d="M150 30H155V35H150z"/><path d="M160 30H165V35H160z"/><path d="M170 25L165 25 165 30 170 30 180 30 180 25 185 25 185 15 180 15 180 20 170 20z"/><path d="M170 35H175V40H170z"/><path d="M135 35H140V40H135z"/><path d="M120 80L100 80 100 85 100 90 95 90 95 95 105 95 105 90 110 90 110 85 120 85z"/><path d="M115 90H125V100H115z"/><path d="M220 45L225 45 225 40 215 40 215 45 205 45 205 55 220 55z"/><path d="M225 50H230V55H225z"/><path d="M195 55H205V60H195z"/><path d="M205 60H215V65H205z"/><path d="M110 50L100 50 100 55 115 55 115 50 125 50 125 45 110 45z"/><path d="M130 55H135V60H130z"/><path d="M180 80L180 70 175 70 175 65 155 65 155 70 170 70 170 80z"/><path d="M185 75H195V80H185z"/><path d="M155 80H160V85H155z"/><path d="M175 90H190V95H175z"/><path d="M190 85H195V90H190z"/><path d="M145 110H150V115H145z"/><path d="M165 105H170V110H165z"/><path d="M170 95H175V100H170z"/><path d="M135 85H150V95H135z"/><path d="M225 115L230 115 230 110 230 105 225 105 225 110 215 110 215 115 215 120 225 120z"/><path d="M230 115H235V120H230z"/><path d="M205 120H215V125H205z"/><path d="M220 130H235V135H220z"/><path d="M235 125H240V130H235z"/><path d="M30 25H45V30H30z"/><path d="M30 35H35V40H30z"/><path d="M40 35H50V45H40z"/><path d="M20 25H25V30H20z"/></g><g fill="#fc85ff" id="change4_1"><path d="M120 0H130V5H120z"/><path d="M115 10H120V15H115z"/><path d="M170 5H180V10H170z"/><path d="M190 15H195V20H190z"/><path d="M195 25H205V30H195z"/><path d="M210 35H215V40H210z"/><path d="M40 85H45V90H40z"/><path d="M45 100H50V105H45z"/><path d="M90 100H105V105H90z"/><path d="M150 80H155V85H150z"/><path d="M100 75H110V80H100z"/><path d="M95 60H100V65H95z"/><path d="M165 85H170V90H165z"/><path d="M225 120H235V125H225z"/><path d="M50 60H55V65H50z"/><path d="M55 55H60V60H55z"/><path d="M25 30H30V35H25z"/><path d="M25 20H30V25H25z"/><path d="M190 50H195V55H190z"/><path d="M165 35H170V40H165z"/><path d="M105 20H110V25H105z"/><path d="M130 70H140V75H130z"/><path d="M135 80H140V85H135z"/></g><g fill="#1279c6" id="change5_1"><path d="M110 15H115V20H110z"/><path d="M90 25H95V30H90z"/><path d="M130 10H140V15H130z"/><path d="M145 20H150V25H145z"/><path d="M170 30H180V35H170z"/><path d="M200 40H210V45H200z"/><path d="M215 55H220V60H215z"/><path d="M155 85H165V90H155z"/><path d="M140 115H150V120H140z"/><path d="M150 110H155V115H150z"/><path d="M145 90H150V95H145z"/><path d="M105 80H110V85H105z"/><path d="M165 65H175V70H165z"/><path d="M205 50H210V55H205z"/><path d="M190 100H205V105H190z"/><path d="M180 105H185V115H180z"/></g><g fill="#2e1b5b" id="change1_1"><path d="M45 135H50V140H45z"/><path d="M50 130H55V135H50z"/><path d="M120 255H130V260H120z"/><path d="M215 245H220V250H215z"/><path d="M205,250v-5h10v-5h-10v-5h-15v5h-10v-5h5v-5h-10v5h-5v5h5v5h-10v5h-10v10h25v-10h5v-5h5v5v5h-5v5h10v-5h20 v-5H205z M195,240h5v5h-5V240z"/><path d="M195 260H200V265H195z"/><path d="M215 255L215 260 225 260 230 260 230 255 225 255z"/><path d="M145 245H155V250H145z"/><path d="M140 250H145V255H140z"/><path d="M85 40L85 35 80 35 80 40 80 50 90 50 90 40z"/><path d="M65 50H80V55H65z"/><path d="M60 45H65V50H60z"/><path d="M85 25L85 20 80 20 75 20 75 35 80 35 80 25z"/><path d="M80 10H90V15H80z"/><path d="M190,140v-5h-5v-5h5v5h10v-5v-5v-5h-5v5h-10v-10h-5v5h-5v5h-5v-5v-5h-5v-5h-5v5v5h5v5h-5v5h-5v-5h-5h-5v5 h5v5h-15v-5h-5v-5h-5v-10h-5v5h-10v10h-10v-5h5v-5H95v-5h-5v-5h5v-5h-5v-5h-5v5v5h-5v5H70v-5H60v-5h-5v-5h-5v5v5h5v10h15v5H55v5 h10v5h5v5h10v5h10v-5h-5v-5H75v-5h5v-5h5v5h5v5h5v5h5v5H90v5v5h10v5h5v5h10v5h5v5h5v5v10v5h5v15v10h-10v5h-5v5h-10v10v5h-5v5H85v5 h15v5h15v-5h5v-5h5v-5h10v-5h5h5h10v-5v-5h-5v5h-5v-5h5v-5h5v5h10v-5h5v-5v-10h-5v-15v-5h-5v-10h-5v-5h-15v-5v-5h-5v5h-5v-5h5v-5 v-5h10v-5h5v-5h20v-10h10v5v5h10h10v-5H190z M125,150h-15v-5h5v-5h-5v-5h10v5h5v5V150z"/><path d="M235 145L225 145 225 150 215 150 215 155 230 155 230 150 240 150 240 145 245 145 245 140 235 140z"/><path d="M245 130H250V140H245z"/><path d="M200 135H205V140H200z"/><path d="M135 5H145V10H135z"/><path d="M130 20H135V25H130z"/><path d="M130 35H135V40H130z"/><path d="M175 110H180V115H175z"/><path d="M130 45L130 40 125 40 125 35 130 35 130 30 130 25 125 25 125 30 120 30 120 35 115 35 115 40 110 40 110 35 100 35 100 40 105 40 105 45 95 45 95 50 90 50 90 55 100 55 100 50 110 50 110 45 115 45 125 45 125 50 135 50 135 45z"/><path d="M200 110L205 110 205 105 195 105 195 110 185 110 185 115 200 115z"/><path d="M10 60L15 60 15 65 20 65 30 65 30 70 35 70 35 65 45 65 45 55 35 55 35 60 30 60 20 60 20 55 15 55 15 50 15 35 5 35 5 50 10 50z"/><path d="M45 50H50V55H45z"/><path d="M50 45H55V50H50z"/><path d="M125 110H130V115H125z"/><path d="M130 105H135V110H130z"/><path d="M135 125H140V130H135z"/><path d="M155 120H160V125H155z"/><path d="M5 105L5 95 0 95 0 110 5 110 5 115 10 115 10 105z"/><path d="M20 120L20 110 15 110 15 115 10 115 10 120 15 120 15 125 20 125 20 130 25 130 25 120z"/><path d="M25 130H45V135H25z"/><path d="M15 75L10 75 10 85 15 85 20 85 20 95 25 95 25 85 30 85 30 70 15 70z"/><path d="M185 40H190V50H185z"/><path d="M225 145L225 140 210 140 210 145 200 145 200 150 200 155 205 155 205 150 215 150 215 145z"/><path d="M65 100L65 90 65 85 60 85 60 90 50 90 50 95 55 95 55 100 60 100z"/><path d="M65 100H70V105H65z"/><path d="M95 95L95 90 95 85 85 85 85 90 90 90 90 95 90 100 95 100z"/><path d="M115 110H120V115H115z"/><path d="M110 115L110 110 105 110 105 115 105 120 110 120z"/><path d="M155 105H160V110H155z"/><path d="M160 100H165V105H160z"/><path d="M155 95H160V100H155z"/><path d="M215 100L220 100 220 95 225 95 225 85 220 85 220 80 230 80 230 75 230 70 235 70 235 60 230 60 230 65 225 65 225 70 220 70 220 75 215 75 205 75 205 70 200 70 200 65 195 65 195 60 190 60 190 55 185 55 185 50 180 50 180 55 170 55 170 60 165 60 165 55 160 55 160 50 165 50 165 40 160 40 160 45 155 45 150 45 150 50 155 50 155 55 150 55 150 50 135 50 135 60 150 60 160 60 160 65 165 65 175 65 175 60 180 60 185 60 185 65 175 65 175 70 185 70 195 70 195 75 200 75 200 80 205 80 205 85 210 85 210 90 210 95 205 95 205 105 215 105z"/><path d="M205 65H210V70H205z"/><path d="M215 65H220V70H215z"/><path d="M190 35H195V40H190z"/><path d="M125 65L125 70 130 70 130 65 135 65 135 60 125 60z"/><path d="M115 70H125V75H115z"/><path d="M105 65H115V70H105z"/><path d="M100 60H105V65H100z"/><path d="M135 65H140V70H135z"/><path d="M125 100H130V105H125z"/><path d="M130 95H135V100H130z"/><path d="M185 30H190V35H185z"/><path d="M190 25H195V30H190z"/><path d="M195 15H200V25H195z"/><path d="M225 55H230V60H225z"/><path d="M200 90H205V95H200z"/></g></g></svg>