<?xml version="1.0" encoding="UTF-8" standalone="no"?><svg xmlns="http://www.w3.org/2000/svg" xmlns:xlink="http://www.w3.org/1999/xlink" contentScriptType="text/ecmascript" fill="#000000" width="117.7" zoomAndPan="magnify" contentStyleType="text/css" viewBox="-0.2 -1.4 117.7 132.1" height="132.1" preserveAspectRatio="xMidYMid meet" version="1"><g id="change1_1" data-name="Layer 7"><path fill="#ff47f9" d="M117.217,124.446a6.927,6.927,0,0,1-.76,3.78c-.72,1.09-2.36,1.68-3.36.84a4.288,4.288,0,0,1-1.01-1.88,9.939,9.939,0,0,0-11.92-5.73c-2.91.94-5.17,3.19-7.63,5.02s-5.57,3.33-8.5,2.43c-2.5-.77-4.15-3.04-5.9-4.98s-4.16-3.79-6.71-3.25c-2.8.6-4.18,3.65-6.18,5.69a10.33,10.33,0,0,1-11.12,2.21c-4.89-2.07-8.63-8.03-13.83-6.96-5.06,1.04-7.22,8.35-12.38,8.75-3.61.27-6.33-3.04-8.8-5.69s-6.61-5.03-9.48-2.81c-1.24.96-1.82,2.51-2.67,3.83s-2.34,2.52-3.84,2.08c-1.83-.54-2.2-2.92-2.23-4.82Q.477,93.5.047,64.046c-.12-8-.21-16.19,2.38-23.761,7.082-20.7,31.316-39,53.139-40.209C83.024-1.446,108.4,20.2,113.977,46.6c2.01,9.51,2.44,19.28,2.75,29Q117.492,100.016,117.217,124.446Z"/></g><g fill="#01c3dc" id="change2_1" data-name="Layer 3"><path d="M40.947,66.486c-4.94,1.38-10.99-.08-14.3-4.13-6.19-7.57-1.94-20.12,8.59-19.66,6.93.15,12.25,4.27,13.03,11.27C48.857,59.266,46.417,64.966,40.947,66.486Z"/><path d="M76.181,66.486c4.94,1.38,10.99-.08,14.3-4.13,6.19-7.57,1.94-20.12-8.59-19.66-6.93.15-12.25,4.27-13.03,11.27C68.271,59.266,70.711,64.966,76.181,66.486Z"/></g><g fill="#01142e" id="change3_1" data-name="Layer 6"><path d="M41.18,55.47a5.25,5.25,0,0,1-3.128,4.8,5.628,5.628,0,0,1-3.628.2,6.471,6.471,0,0,1-4.654-6.223A5.485,5.485,0,0,1,36.3,48.909a6.182,6.182,0,0,1,3.546,1.912A6.949,6.949,0,0,1,41.18,55.47Z"/><path d="M75.949,55.47a5.247,5.247,0,0,0,3.128,4.8,5.625,5.625,0,0,0,3.627.2,6.472,6.472,0,0,0,4.655-6.223,5.485,5.485,0,0,0-6.529-5.344,6.184,6.184,0,0,0-3.547,1.912A6.943,6.943,0,0,0,75.949,55.47Z"/></g></svg>