<?xml version="1.0" encoding="UTF-8" standalone="no"?><svg xmlns="http://www.w3.org/2000/svg" xmlns:xlink="http://www.w3.org/1999/xlink" contentScriptType="text/ecmascript" fill="#000000" width="315" zoomAndPan="magnify" contentStyleType="text/css" viewBox="0.0 0.0 315.0 110.0" height="110" preserveAspectRatio="xMidYMid meet" version="1"><g><g id="change1_1"><path fill="#ff999a" d="M310 85L310 80 305 80 305 75 295 75 295 70 270 70 270 75 260 75 260 65 255 65 255 60 250 60 250 55 245 55 245 50 220 50 220 45 220 40 215 40 215 35 215 30 210 30 210 25 205 25 205 20 200 20 200 15 180 15 180 10 175 10 175 5 170 5 170 0 150 0 150 5 140 5 140 10 115 10 115 15 110 15 110 20 105 20 105 25 100 25 100 45 95 45 95 50 90 50 90 55 90 60 85 60 85 55 70 55 70 60 65 60 65 65 60 65 60 70 55 70 55 80 45 80 45 85 35 85 35 90 30 90 30 85 15 85 15 90 5 90 5 95 0 95 0 100 0 105 5 105 5 110 30 110 40 110 55 110 65 110 95 110 105 110 110 110 205 110 210 110 220 110 235 110 250 110 255 110 305 110 305 105 310 105 310 95 315 95 315 85z"/></g><g fill="#5561d3" id="change2_1"><path d="M140 25L140 10 135 10 135 20 130 20 130 35 135 35 135 25z"/><path d="M140 5H150V10H140z"/><path d="M135 35H140V45H135z"/><path d="M155 55L155 50 150 50 150 45 140 45 140 50 145 50 145 55 150 55 150 60 160 60 160 55z"/><path d="M175 15H185V20H175z"/><path d="M170 20H175V25H170z"/><path d="M165 25H170V40H165z"/><path d="M170 40H175V50H170z"/><path d="M175 50H180V55H175z"/><path d="M180 55H190V60H180z"/><path d="M190 60H200V65H190z"/><path d="M200 55H210V60H200z"/><path d="M300 95L300 100 290 100 290 95 280 95 280 90 270 90 270 85 265 85 265 80 265 75 255 75 255 80 235 80 235 85 210 85 210 80 195 80 195 75 180 75 180 70 175 70 175 65 180 65 180 60 175 60 165 60 160 60 160 65 165 65 165 70 170 70 170 75 160 75 160 80 155 80 135 80 130 80 125 80 125 75 115 75 115 70 105 70 105 65 95 65 95 60 95 55 100 55 100 45 95 45 95 50 90 50 90 60 90 65 90 70 95 70 95 75 100 75 100 80 90 80 90 85 85 85 85 95 75 95 75 90 70 90 70 85 65 85 65 80 60 80 60 70 55 70 55 80 50 80 50 90 45 90 45 95 40 95 40 100 10 100 10 90 5 90 5 95 0 95 0 105 5 105 5 110 10 110 150 110 190 110 195 110 200 110 210 110 240 110 260 110 265 110 305 110 305 105 310 105 310 100 310 95z"/></g><g fill="#8e68e6" id="change3_1"><path d="M15 90L10 90 10 100 15 100 40 100 40 95 15 95z"/><path d="M45 80H50V90H45z"/><path d="M65 75L65 65 60 65 60 80 65 80 65 85 70 85 70 75z"/><path d="M70 85L70 90 75 90 75 95 85 95 85 85 75 85z"/><path d="M110 65L110 60 105 60 105 55 105 40 100 40 100 55 95 55 95 65 105 65 105 70 115 70 115 65z"/><path d="M125 70L115 70 115 80 125 80 125 85 160 85 160 75 125 75z"/><path d="M160 70H170V75H160z"/><path d="M145 90H150V95H145z"/><path d="M165 80H175V90H165z"/><path d="M95 85H105V95H95z"/><path d="M55 85H60V90H55z"/><path d="M45 95H50V100H45z"/><path d="M55 95H65V105H55z"/><path d="M120 85L115 85 115 90 115 95 120 95 140 95 140 90 120 90z"/><path d="M195 85H205V90H195z"/><path d="M185 70L185 60 180 60 180 65 175 65 175 70 180 70 180 75 195 75 195 70z"/><path d="M135 25H140V35H135z"/><path d="M145 40L145 35 140 35 140 40 140 45 145 45 150 45 150 40z"/><path d="M150 45H155V50H150z"/><path d="M175 55L175 50 160 50 155 50 155 55 160 55 160 60 180 60 180 55z"/><path d="M255 75L260 75 260 65 255 65 255 70 235 70 235 75 210 75 195 75 195 80 210 80 210 85 235 85 235 80 255 80z"/><path d="M270 80L270 75 265 75 265 85 270 85 270 90 280 90 280 80z"/><path d="M280 90H290V95H280z"/><path d="M290 95H300V100H290z"/><path d="M300 90H315V95H300z"/><path d="M265 90L255 90 255 95 260 95 260 100 275 100 275 95 265 95z"/><path d="M240 85H255V90H240z"/></g><g fill="#fb6ba2" id="change4_1"><path d="M120 65L120 55 115 55 115 35 105 35 105 30 110 30 110 20 105 20 105 25 100 25 100 40 105 40 105 60 110 60 110 65 115 65 115 70 125 70 125 65z"/><path d="M125 70H160V75H125z"/><path d="M120 30L120 25 115 25 115 30 115 35 120 35z"/><path d="M120 20H125V25H120z"/><path d="M160 65H165V70H160z"/><path d="M75 75L70 75 70 80 70 85 75 85 90 85 90 80 75 80z"/><path d="M20 85L15 85 15 90 15 95 20 95 30 95 30 90 20 90z"/><path d="M35 90H45V95H35z"/><path d="M155 5L160 5 160 0 155 0 150 0 150 10 155 10z"/><path d="M145 30L145 15 150 15 150 10 145 10 140 10 140 35 145 35 145 40 150 40 150 30z"/><path d="M150 40H155V45H150z"/><path d="M155 45H170V50H155z"/><path d="M150 20H155V25H150z"/><path d="M75 65L75 60 80 60 80 55 75 55 70 55 70 60 65 60 65 75 70 75 70 65z"/><path d="M95 70L90 70 90 75 90 80 100 80 100 75 95 75z"/><path d="M85 60H90V70H85z"/><path d="M170 25H175V40H170z"/><path d="M175 40H180V50H175z"/><path d="M180 50H190V55H180z"/><path d="M190 55H200V60H190z"/><path d="M245 65L225 65 225 70 200 70 200 65 190 65 190 60 185 60 185 70 190 70 195 70 195 75 235 75 235 70 255 70 255 65 255 60 245 60z"/><path d="M200 50H210V55H200z"/><path d="M210 45H215V50H210z"/><path d="M275 75L275 70 270 70 270 75 270 80 280 80 280 75z"/><path d="M285 85L285 80 280 80 280 85 280 90 290 90 290 85z"/><path d="M290 90H300V95H290z"/><path d="M310 85L310 80 305 80 305 85 300 85 300 90 315 90 315 85z"/><path d="M140 50H145V55H140z"/><path d="M145 55H150V60H145z"/><path d="M150 60H160V65H150z"/></g><g fill="#ffe14d" id="change5_1"><path d="M160 10H170V15H160z"/><path d="M170 5H175V10H170z"/><path d="M175 10H180V15H175z"/><path d="M190 15H200V20H190z"/><path d="M185 25H195V30H185z"/><path d="M195 35H200V40H195z"/><path d="M120 10H135V15H120z"/><path d="M160 0H170V5H160z"/><path d="M200 20H205V25H200z"/><path d="M210 30H215V35H210z"/><path d="M285 70H295V75H285z"/><path d="M295 75H305V80H295z"/><path d="M215 40H220V50H215z"/><path d="M220 50H235V55H220z"/><path d="M240 55H245V60H240z"/><path d="M215 55H220V60H215z"/><path d="M180 30H185V35H180z"/></g></g></svg>