<?xml version="1.0" encoding="UTF-8" standalone="no"?><svg xmlns="http://www.w3.org/2000/svg" xmlns:xlink="http://www.w3.org/1999/xlink" contentScriptType="text/ecmascript" fill="#000000" width="500" zoomAndPan="magnify" contentStyleType="text/css" viewBox="0.0 0.0 500.0 75.0" height="75" preserveAspectRatio="xMidYMid meet" version="1"><g><g fill="#007d2a" id="change1_1"><path d="M495 15L495 10 485 10 485 5 475 5 475 0 470 0 470 5 465 5 465 15 460 15 460 10 445 10 445 15 440 15 440 10 430 10 430 5 435 5 435 0 425 0 425 5 415 5 415 10 405 10 405 15 400 15 400 10 400 5 395 5 395 10 385 10 385 15 380 15 380 10 370 10 370 5 380 5 380 0 365 0 365 5 355 5 355 10 350 10 350 15 345 15 345 10 345 5 350 5 350 0 340 0 340 5 335 5 325 5 325 10 330 10 330 15 325 15 325 10 320 10 320 5 315 5 315 10 310 10 310 5 305 5 305 0 295 0 295 5 300 5 300 10 295 10 295 15 290 15 290 10 285 10 285 5 280 5 280 10 275 10 275 15 270 15 270 10 265 10 265 15 260 15 260 10 250 10 250 5 240 5 240 0 230 0 230 5 225 5 225 0 210 0 210 5 220 5 220 10 205 10 205 15 190 15 190 10 185 10 185 5 180 5 180 10 170 10 170 15 165 15 165 10 155 10 155 15 150 15 150 10 145 10 145 15 140 15 140 10 135 10 135 5 120 5 120 10 115 10 115 15 105 15 105 10 100 10 100 15 95 15 95 10 75 10 75 15 70 15 70 10 75 10 75 5 65 5 65 10 60 10 60 5 55 5 55 0 45 0 45 5 25 5 25 10 10 10 10 5.2 0 5.2 0 10 5 10 5 15 0 15 0 75 500 75 500 15z"/><path d="M135 0H140V5H135z"/><path d="M95 5H100V10H95z"/><path d="M260 5H265V10H260z"/><path d="M195 5H205V10H195z"/><path d="M485 0H495V5H485z"/></g><g fill="#2e1b5b" id="change2_1"><path d="M495 65L495 60 490 60 490 65 485 65 485 60 480 60 480 65 475 65 475 60 475 55 460 55 460 60 470 60 470 65 450 65 450 60 445 60 445 55 440 55 440 60 430 60 430 65 420 65 420 60 410 60 410 65 405 65 405 60 395 60 395 55 390 55 390 60 390 65 385 65 385 60 380 60 380 65 375 65 375 60 370 60 370 65 365 65 365 60 360 60 360 55 355 55 355 60 340 60 340 65 330 65 330 60 320 60 320 65 315 65 315 60 305 60 305 65 295 65 295 60 290 60 290 65 285 65 285 60 280 60 280 55 275 55 275 60 270 60 270 65 265 65 265 60 250 60 250 65 245 65 245 60 240 60 240 65 220 65 220 60 225 60 225 55 210 55 210 50 205 50 205 55 200 55 200 60 215 60 215 65 190 65 190 60 185 60 185 65 175 65 175 60 175 55 170 55 170 60 165 60 165 65 150 65 150 60 145 60 145 65 130 65 130 60 120 60 120 65 115 65 115 60 115 55 110 55 110 60 100 60 100 65 85 65 85 60 75 60 75 65 65 65 65 60 55 60 55 55 50 55 50 60 50 65 35 65 35 60 25 60 25 65 15 65 15 60 5 60 5 65 0 65 0 70 0 75 500 75 500 70 500 65z"/><path d="M15 55H20V60H15z"/><path d="M85 55H90V60H85z"/><path d="M65 50H70V55H65z"/><path d="M5 50H10V55H5z"/><path d="M135 50H140V55H135z"/><path d="M140 55H145V60H140z"/><path d="M150 55H155V60H150z"/><path d="M230 55H235V60H230z"/><path d="M245 55H250V60H245z"/><path d="M260 50H270V55H260z"/><path d="M295 55H300V60H295z"/><path d="M315 55H320V60H315z"/><path d="M375 55H380V60H375z"/><path d="M380 50H385V55H380z"/><path d="M350 50H355V55H350z"/><path d="M335 50H340V55H335z"/><path d="M305 50H315V55H305z"/><path d="M420 55H425V60H420z"/><path d="M445 50H450V55H445z"/><path d="M485 55H490V60H485z"/><path d="M485 45H490V50H485z"/><path d="M115 50H120V55H115z"/><path d="M100 45H105V50H100z"/><path d="M25 50H30V55H25z"/><path d="M45 45H50V50H45z"/><path d="M295 45H300V50H295z"/><path d="M215 40H220V45H215z"/><path d="M185 45H190V50H185z"/><path d="M395 40H400V45H395z"/><path d="M430 45H435V50H430z"/><path d="M470 45H475V50H470z"/></g><g fill="#00c49c" id="change3_1"><path d="M370 40H375V45H370z"/><path d="M385 40H390V45H385z"/><path d="M340 45H350V50H340z"/><path d="M350 40H355V45H350z"/><path d="M315 25H325V35H315z"/><path d="M330 30H335V35H330z"/><path d="M345 30H350V35H345z"/><path d="M225 25H230V30H225z"/><path d="M230 35H240V40H230z"/><path d="M240 30H245V35H240z"/><path d="M245 45H250V50H245z"/><path d="M255 40H260V45H255z"/><path d="M260 30H270V40H260z"/><path d="M270 25H275V30H270z"/><path d="M270 40H275V45H270z"/><path d="M285 30H290V35H285z"/><path d="M275 35H285V40H275z"/><path d="M285 45H290V50H285z"/><path d="M295 25L290 25 290 30 300 30 300 25 300 20 295 20z"/><path d="M295 40H300V45H295z"/><path d="M305 30H310V35H305z"/><path d="M355 15H365V25H355z"/><path d="M365 25H370V30H365z"/><path d="M375 20H380V25H375z"/><path d="M400 20H405V25H400z"/><path d="M390 25H395V30H390z"/><path d="M415 30H420V35H415z"/><path d="M405 35H415V40H405z"/><path d="M420 15H430V20H420z"/><path d="M430 25H435V30H430z"/><path d="M445 25H455V30H445z"/><path d="M460 25H465V30H460z"/><path d="M440 35H445V40H440z"/><path d="M445 40H450V45H445z"/><path d="M470 30H480V40H470z"/><path d="M480 20H485V25H480z"/><path d="M490 35H495V40H490z"/><path d="M455 45H460V50H455z"/><path d="M470 10H475V15H470z"/><path d="M410 45H415V50H410z"/><path d="M5 20H10V25H5z"/><path d="M15 30H20V35H15z"/><path d="M25 20H35V30H25z"/><path d="M30 40H35V45H30z"/><path d="M40 10H50V15H40z"/><path d="M35 15H40V20H35z"/><path d="M45 30H60V35H45z"/><path d="M55 20H60V25H55z"/><path d="M60 35H70V40H60z"/><path d="M70 40H75V45H70z"/><path d="M70 30H75V35H70z"/><path d="M75 20H85V30H75z"/><path d="M90 20H95V25H90z"/><path d="M85 45H90V50H85z"/><path d="M5 40H10V45H5z"/><path d="M235 15H240V20H235z"/><path d="M205 35H215V40H205z"/><path d="M195 45H200V50H195z"/><path d="M110 30H115V35H110z"/><path d="M120 20H125V25H120z"/><path d="M125 25H130V35H125z"/><path d="M130 35H135V40H130z"/><path d="M135 20H145V30H135z"/><path d="M145 35H150V40H145z"/><path d="M155 30H160V35H155z"/><path d="M170 25H175V30H170z"/><path d="M175 30H185V35H175z"/><path d="M185 25H190V30H185z"/><path d="M175 15H180V20H175z"/><path d="M195 20H200V25H195z"/><path d="M210 25H220V30H210z"/></g><g fill="#179cff" id="change4_1"><path d="M90 25H95V30H90z"/><path d="M100 25H110V30H100z"/><path d="M125 10H130V15H125z"/><path d="M155 15H165V20H155z"/><path d="M205 10H215V15H205z"/><path d="M250 15H260V20H250z"/><path d="M230 5H240V10H230z"/><path d="M220 10H225V15H220z"/><path d="M305 10H315V15H305z"/><path d="M320 20H330V25H320z"/><path d="M330 5H340V15H330z"/><path d="M345 20H350V25H345z"/><path d="M360 5H365V10H360z"/><path d="M375 10H380V15H375z"/><path d="M390 10H400V20H390z"/><path d="M415 5H420V10H415z"/><path d="M410 15H415V20H410z"/><path d="M440 15H445V20H440z"/><path d="M450 10H460V20H450z"/><path d="M465 15H470V20H465z"/><path d="M425 35H430V40H425z"/><path d="M455 35H460V40H455z"/><path d="M475 35H480V40H475z"/><path d="M490 20H500V30H490z"/><path d="M30 35H35V40H30z"/><path d="M15 45H20V50H15z"/><path d="M10 10H25V15H10z"/><path d="M30 5H35V10H30z"/><path d="M50 20H55V25H50z"/><path d="M175 40H185V45H175z"/></g><g fill="#fc85ff" id="change5_1"><path d="M240 5H250V10H240z"/><path d="M225 15H230V20H225z"/><path d="M215 0H225V5H215z"/><path d="M195 20H205V25H195z"/><path d="M210 15H215V20H210z"/><path d="M245 20H255V25H245z"/><path d="M275 20H285V25H275z"/><path d="M295 15H305V20H295z"/><path d="M275 10H285V15H275z"/><path d="M320 15H330V20H320z"/><path d="M335 20H340V25H335z"/><path d="M355 30H360V35H355z"/><path d="M365 10H375V15H365z"/><path d="M370 0H375V5H370z"/><path d="M380 35H390V40H380z"/><path d="M410 20H415V25H410z"/><path d="M160 35H175V40H160z"/><path d="M155 25H160V30H155z"/><path d="M105 20H115V25H105z"/><path d="M120 45H125V50H120z"/><path d="M70 15H85V20H70z"/><path d="M40 25H50V30H40z"/><path d="M40 5H50V10H40z"/><path d="M55 15H60V20H55z"/><path d="M35 40H40V45H35z"/><path d="M20 30H25V35H20z"/><path d="M15 20H20V25H15z"/><path d="M450 20H460V25H450z"/><path d="M475 5H480V10H475z"/><path d="M470 25H475V30H470z"/><path d="M485 15H495V20H485z"/><path d="M485 30H495V35H485z"/><path d="M430 30H440V35H430z"/><path d="M95 35H100V40H95z"/><path d="M135 15H145V20H135z"/></g></g></svg>