<?xml version="1.0" encoding="UTF-8" standalone="no"?><svg xmlns="http://www.w3.org/2000/svg" xmlns:xlink="http://www.w3.org/1999/xlink" contentScriptType="text/ecmascript" fill="#000000" width="483.8" zoomAndPan="magnify" contentStyleType="text/css" viewBox="-0.2 -0.2 483.8 374.7" height="374.7" data-name="Layer 1" preserveAspectRatio="xMidYMid meet" version="1"><g id="change1_1"><path fill="#f589b6" d="M467.74 109.49L467.74 94.12 452.15 94.12 452.15 78.75 436.55 78.75 436.55 63.36 420.96 63.36 420.96 47.99 405.37 47.99 405.37 32.63 389.77 32.63 389.77 17.24 374.18 17.24 374.18 1.87 358.58 1.87 342.99 1.87 327.4 1.87 311.8 1.87 296.21 1.87 280.61 1.87 265.02 1.87 249.43 1.87 233.83 1.87 218.24 1.87 202.65 1.87 187.05 1.87 171.46 1.87 155.86 1.87 140.27 1.87 124.68 1.87 109.08 1.87 109.08 17.24 93.49 17.24 93.49 32.63 77.89 32.63 77.89 47.99 62.3 47.99 62.3 63.36 46.71 63.36 46.71 78.75 31.11 78.75 31.11 94.12 15.52 94.12 15.52 109.49 -0.09 109.49 -0.09 124.87 -0.09 140.24 15.52 140.24 15.52 155.63 31.11 155.63 31.11 170.99 46.71 170.99 46.71 186.36 62.3 186.36 62.3 201.75 77.89 201.75 77.89 217.12 93.49 217.12 93.49 232.5 109.08 232.5 109.08 247.87 124.68 247.87 124.68 263.24 140.27 263.24 140.27 278.63 155.86 278.63 155.86 293.99 171.46 293.99 171.46 309.38 187.05 309.38 187.05 324.75 202.65 324.75 202.65 340.12 218.24 340.12 218.24 355.5 233.83 355.5 233.83 370.87 249.43 370.87 249.43 355.5 265.02 355.5 265.02 340.12 280.61 340.12 280.61 324.75 296.21 324.75 296.21 309.38 311.8 309.38 311.8 293.99 327.4 293.99 327.4 278.63 342.99 278.63 342.99 263.24 358.58 263.24 358.58 247.87 374.18 247.87 374.18 232.5 389.77 232.5 389.77 217.12 405.37 217.12 405.37 201.75 420.96 201.75 420.96 186.36 436.55 186.36 436.55 170.99 452.15 170.99 452.15 155.63 467.74 155.63 467.74 140.24 483.35 140.24 483.35 124.87 483.35 109.49 467.74 109.49z"/></g><g id="change2_1"><path fill="#e26fa3" d="M452.24 124.75L436.63 124.75 421.05 124.75 405.46 124.75 389.86 124.75 374.27 124.75 358.66 124.75 343.08 124.75 343.08 140.34 343.08 155.94 327.49 155.94 327.49 171.53 327.49 187.12 311.88 187.12 311.88 202.72 311.88 218.31 296.3 218.31 296.3 233.91 296.3 249.5 280.69 249.5 280.69 265.09 280.69 280.69 265.11 280.69 265.11 296.28 265.11 311.88 249.52 311.88 249.52 327.47 249.52 343.06 265.11 343.06 265.11 327.47 280.69 327.47 280.69 311.88 296.3 311.88 296.3 296.28 311.88 296.28 311.88 280.69 327.49 280.69 327.49 265.09 343.08 265.09 343.08 249.5 358.66 249.5 358.66 233.91 374.27 233.91 374.27 218.31 389.86 218.31 389.86 202.72 405.46 202.72 405.46 187.12 421.05 187.12 421.05 171.53 436.63 171.53 436.63 155.94 452.24 155.94 452.24 140.34 467.83 140.34 467.83 124.75 452.24 124.75z"/></g><g id="change3_1"><path fill="#ffc5df" d="M343.08 93.56L343.08 77.97 343.08 62.37 327.49 62.37 327.49 46.78 327.49 31.19 311.88 31.19 311.88 15.59 296.3 15.59 280.69 15.59 265.11 15.59 249.52 15.59 233.91 15.59 218.33 15.59 202.74 15.59 187.13 15.59 171.55 15.59 171.55 31.19 155.94 31.19 155.94 46.78 155.94 62.37 140.35 62.37 140.35 77.97 140.35 93.56 124.77 93.56 124.77 109.15 124.77 124.75 109.16 124.75 93.58 124.75 77.97 124.75 62.38 124.75 46.8 124.75 31.19 124.75 15.6 124.75 15.6 140.34 31.19 140.34 31.19 155.94 46.8 155.94 46.8 171.53 62.38 171.53 62.38 187.12 77.97 187.12 77.97 202.72 93.58 202.72 93.58 218.31 109.16 218.31 109.16 233.91 124.77 233.91 124.77 249.5 140.35 249.5 140.35 265.09 155.94 265.09 155.94 280.69 171.55 280.69 171.55 296.28 187.13 296.28 187.13 311.88 202.74 311.88 202.74 327.47 218.33 327.47 218.33 343.06 233.91 343.06 233.91 327.47 233.91 311.88 218.33 311.88 218.33 296.28 218.33 280.69 202.74 280.69 202.74 265.09 202.74 249.5 187.13 249.5 187.13 233.91 187.13 218.31 171.55 218.31 171.55 202.72 171.55 187.12 155.94 187.12 155.94 171.53 155.94 155.94 140.35 155.94 140.35 140.34 140.35 124.75 155.94 124.75 171.55 124.75 187.13 124.75 202.74 124.75 218.33 124.75 233.91 124.75 249.52 124.75 265.11 124.75 280.69 124.75 296.3 124.75 311.88 124.75 327.49 124.75 343.08 124.75 358.66 124.75 358.66 109.15 358.66 93.56 343.08 93.56z"/></g><g id="change4_1"><path fill="#fefdfe" d="M155.94 15.59L140.35 15.59 124.77 15.59 109.16 15.59 109.16 31.19 93.58 31.19 93.58 46.78 77.97 46.78 77.97 62.37 62.38 62.37 62.38 77.97 46.8 77.97 46.8 93.56 31.19 93.56 31.19 109.15 15.6 109.15 15.6 124.75 31.19 124.75 46.8 124.75 62.38 124.75 77.97 124.75 93.58 124.75 109.16 124.75 124.77 124.75 124.77 109.15 124.77 93.56 140.35 93.56 140.35 77.97 140.35 62.37 155.94 62.37 155.94 46.78 155.94 31.19 171.55 31.19 171.55 15.59 155.94 15.59z"/></g><g id="change5_1"><path fill="#3d3b52" d="M468,109V93.36H452.44V77.77H436.83V62.17H421.25V46.58H405.66V31h-15.6V15.39H374.47V-.2H109V15.39H93.37V31H77.77V46.58H62.18V62.17H46.6v15.6H31V93.36H15.4V109H-.2v31.59H15.4v15.6H31v15.59H46.6v15.59H62.18v15.6H77.77v15.59h15.6v15.6H109V249.7h15.61v15.59h15.58v15.6h15.59v15.59h15.61v15.6h15.58v15.59h15.61v15.59h15.59v15.6h15.58v15.59h16V358.86H265.3v-15.6h15.59V327.67H296.5V312.08h15.58v-15.6h15.61V280.89h15.59v-15.6h15.58V249.7h15.61V234.11h15.59v-15.6h15.6V202.92h15.59v-15.6h15.58V171.73h15.61V156.14H468v-15.6h15.6V109Zm-.4,15.8v15.39H452v15.6H436.43v15.59H420.85v15.59H405.26v15.6h-15.6v15.59H374.07v15.6H358.46V249.3H342.88v15.59H327.29v15.6H311.68v15.59H296.1v15.6H280.49v15.59H264.9v15.59H249.32v15.6H234.11v-15.6H218.53V327.27H202.94V311.68H187.33v-15.6H171.74V280.49h-15.6v-15.6H140.55V249.3H125V233.71H109.36v-15.6H93.77V202.52H78.17v-15.6H62.58V171.33H47V155.74H31.39v-15.6H15.8V109.35H31.39V93.76H47V78.17H62.58V62.57H78.17V47h15.6V31.39h15.59V15.79H374.07v15.6h15.59V47h15.6V62.57h15.59v15.6h15.58V93.76H452v15.59h15.59Z"/></g></svg>